<?xml version="1.0" encoding="UTF-8" standalone="no"?>
<svg
   xmlns:dc="http://purl.org/dc/elements/1.1/"
   xmlns:cc="http://creativecommons.org/ns#"
   xmlns:rdf="http://www.w3.org/1999/02/22-rdf-syntax-ns#"
   xmlns:svg="http://www.w3.org/2000/svg"
   xmlns="http://www.w3.org/2000/svg"
   xmlns:sodipodi="http://sodipodi.sourceforge.net/DTD/sodipodi-0.dtd"
   xmlns:inkscape="http://www.inkscape.org/namespaces/inkscape"
   sodipodi:docname="drawing.svg"
   inkscape:version="1.0 (4035a4fb49, 2020-05-01)"
   id="svg8"
   version="1.1"
   viewBox="0 0 297 210"
   height="210mm"
   width="297mm">
  <defs
     id="defs2" />
  <sodipodi:namedview
     inkscape:document-rotation="0"
     inkscape:window-maximized="1"
     inkscape:window-y="-8"
     inkscape:window-x="-8"
     inkscape:window-height="1017"
     inkscape:window-width="1920"
     showgrid="false"
     inkscape:current-layer="layer1"
     inkscape:document-units="mm"
     inkscape:cy="331.24853"
     inkscape:cx="664.27834"
     inkscape:zoom="0.98994949"
     inkscape:pageshadow="2"
     inkscape:pageopacity="0.0"
     borderopacity="1.0"
     bordercolor="#666666"
     pagecolor="#ffffff"
     id="base" />
  <metadata
     id="metadata5">
    <rdf:RDF>
      <cc:Work
         rdf:about="">
        <dc:format>image/svg+xml</dc:format>
        <dc:type
           rdf:resource="http://purl.org/dc/dcmitype/StillImage" />
        <dc:title />
      </cc:Work>
    </rdf:RDF>
  </metadata>
  <g
     transform="translate(0,-87)"
     id="layer1"
     inkscape:groupmode="layer"
     inkscape:label="Layer 1">
    <path
       id="rect21"
       transform="matrix(0.26458333,0,0,0.26458333,0,87)"
       d="M 100.25781 269.30469 C 87.630906 269.68351 70.205355 276.88191 66.291016 278.52344 C 62.376672 280.16492 66.29195 278.52242 54.927734 284.45703 C 49.498163 285.71973 45.583984 292.28711 45.583984 292.28711 L 45.835938 296.70508 C 40.532637 298.09402 37.880859 303.65039 37.880859 303.65039 L 38.763672 308.70117 L 12.375 305.92383 L 12.248047 307.69141 L 10.732422 307.69141 L 11.996094 323.72656 L 2.5253906 322.96875 L 3.7773438 415.74805 L 0 415.74805 L 0 793.70117 L 1122.5195 793.70117 L 1122.5195 415.74805 L 1100.7949 415.74805 L 1100.7148 392.98633 L 1097.2324 393.07617 L 1097.3223 394.68164 L 1092.2324 394.95117 L 1092.2324 396.82617 L 1086.25 396.82617 L 1086.3398 395.48633 L 1084.7324 395.57617 L 1084.9121 394.41406 L 1080.8047 394.23633 L 1079.9121 395.48633 L 1077.1426 395.48633 L 1076.875 396.91406 L 1073.5723 396.82617 L 1073.3047 387.89648 L 1061.6973 387.89648 L 1059.2852 387.09375 L 1057.5 388.52148 L 1055.8926 388.25391 L 1055.9824 390.12891 L 1046.6973 390.39648 L 1046.6074 394.95117 L 1044.2852 394.95117 L 1043.75 393.07617 L 1041.9648 394.68359 L 1039.375 394.77148 L 1035.8926 392.98633 L 1035.8926 394.86133 L 1026.3398 394.68359 L 1026.5176 392.80859 L 1014.4648 392.45117 L 1014.4648 395.93359 L 1008.4824 395.93359 L 1008.5723 393.96875 L 1003.125 393.61133 L 1003.3926 394.95117 L 997.05469 394.32617 L 995.89258 386.73633 L 989.01758 386.55859 L 989.01758 385.84375 L 986.78516 385.75391 L 985.80469 386.29102 L 979.46484 385.57617 L 979.64258 395.84375 L 970.71484 395.93359 L 968.83984 390.12891 L 965.53516 389.86133 L 965.44727 389.32617 L 958.57227 389.41602 L 957.14258 388.52344 L 947.85742 388.70117 L 947.94727 390.39648 L 946.07227 390.48633 L 946.16016 398.70117 L 944.19727 398.78906 L 944.10742 397.18359 L 943.21484 397.18359 L 943.39258 394.41406 L 939.10742 394.32617 L 939.10742 395.39648 L 937.5 395.39648 L 937.58789 397.36328 L 926.07031 396.73828 L 926.24805 392.36328 L 916.7832 392.36328 L 916.51562 390.57812 L 905.80078 390.57812 L 905.71289 392.45312 L 893.21289 392.0957 L 893.30078 384.32617 L 879.10547 384.32617 L 879.2832 394.95117 L 877.94336 395.2207 L 878.0332 396.73828 L 873.83789 397.18359 L 874.01562 393.79102 L 872.67578 393.70312 L 872.58789 392.80859 L 869.73047 392.00586 L 865.89062 392.7207 L 865.71289 394.14844 L 864.37305 394.14844 L 863.92773 395.13086 L 858.39062 393.9707 L 852.14062 395.8457 L 851.96289 397.18359 L 849.64062 397.00586 L 849.55273 399.06055 L 844.01562 399.06055 L 843.74805 395.31055 L 839.10547 395.2207 L 839.10547 396.38086 L 836.1582 396.11328 L 836.1582 380.93555 L 831.42773 381.02344 L 831.60547 379.32812 L 826.24805 378.88086 L 826.07031 377.63086 L 811.16016 377.45312 L 810.89062 376.02344 L 802.14062 375.66602 L 801.78516 329.86328 L 787.23047 331.20312 L 787.94531 376.29102 L 768.30273 375.04102 L 768.30273 373.61328 L 763.83789 373.61328 L 764.10547 393.3457 L 761.69531 393.52344 L 761.78516 396.55859 L 749.91016 396.11328 L 749.10547 330.75586 L 747.94531 330.48828 L 748.39062 328.9707 L 747.67773 327.45117 L 748.30273 324.95117 L 744.55273 324.77344 L 744.46289 323.70117 L 741.51758 323.70117 L 741.51758 322.89844 L 740.35547 322.54102 L 739.73047 305.93359 L 739.64258 322.71875 L 738.57031 322.80859 L 738.57031 323.88086 L 735.80273 323.88086 L 735.71289 324.68359 L 732.49805 324.68359 L 732.41016 330.30859 L 731.60547 330.30859 L 731.24805 372.36328 L 729.99805 372.45117 L 730.17773 362.80859 L 729.19531 362.80859 L 729.19531 359.68359 L 727.67773 359.41602 L 727.76758 355.84375 L 726.25 355.57617 L 726.16016 354.59375 C 726.16016 354.59375 723.65932 351.11263 720.08789 351.02344 C 716.51646 350.93417 714.73047 353.70117 714.73047 353.70117 L 714.64258 356.73633 L 713.125 356.91602 L 712.76758 359.95117 L 711.60547 359.95117 L 711.60547 362.98633 L 710.44531 363.16602 L 710.89258 389.14844 L 705.89258 389.05859 L 705.80273 369.50586 L 687.23242 369.41602 L 686.96289 379.77344 L 685.08789 379.77344 L 684.64258 375.04102 L 666.96289 374.77344 L 666.60547 377.71875 L 659.19531 377.45117 L 659.01758 380.84375 L 657.32031 381.02344 L 657.41016 369.05859 L 650.53516 369.14844 L 650.53516 368.16602 L 643.83789 367.80859 L 643.66016 369.59375 L 631.875 369.59375 L 631.69531 376.37891 L 627.94531 376.37891 L 628.03516 393.70117 L 627.32031 393.70117 L 626.25 380.12891 L 626.25 372.98633 L 623.03516 372.09375 L 616.07031 372.18359 L 615.89258 379.59375 L 615.17773 379.68359 L 614.64258 390.84375 L 606.51758 391.02148 L 606.42773 392.71875 L 603.125 390.93359 L 599.19531 390.57617 L 599.10742 384.68359 L 593.39258 384.41406 L 593.57227 366.82617 L 587.76758 366.64648 L 587.76758 365.12891 L 571.60742 364.77148 L 571.60742 366.28906 L 568.83984 366.37891 L 568.39258 398.70117 L 564.16992 398.73047 L 560.38281 396.71094 L 561.14062 392.66992 L 555.83594 392.16406 L 556.08984 390.14453 L 550.02734 390.14453 L 550.02734 391.66016 L 545.48242 391.1543 L 544.97656 394.4375 L 543.9668 394.94336 L 544.21875 388.125 L 542.95703 387.87109 L 541.94727 384.08398 L 540.9375 388.88281 L 539.67383 388.62891 L 539.16797 394.18555 L 533.86523 393.93359 L 534.37109 395.95312 L 525.53125 395.95312 L 525.53125 390.65039 L 507.85352 390.14453 L 507.60156 395.70117 L 499.51953 395.44727 L 499.51953 399.99414 L 495.98438 399.99414 L 494.72266 316.9082 L 477.04492 315.39453 L 476.28711 376.75977 L 469.97266 372.4668 L 461.38672 371.96289 L 460.88281 391.91211 L 444.97266 389.13477 L 446.99219 371.20508 L 436.13281 370.69922 L 434.61719 368.93164 L 424.76953 366.91211 L 423.75977 363.12305 L 412.39453 362.87109 L 403.55664 368.42578 L 402.29297 376.50781 L 395.72656 376.50781 L 395.22266 373.73047 L 374.51367 372.7207 L 362.95703 415.74805 L 343.74219 415.74805 L 343.2793 410.30859 L 350.7793 400.30859 L 356.13672 399.41602 L 363.63672 392.80859 L 368.2793 383.87891 L 350.7793 382.62891 L 349.34961 372.80859 L 349.88672 367.27148 L 346.84961 364.77148 L 346.67188 363.52148 L 344.70703 362.45117 L 334.5293 328.16602 L 336.49219 326.37891 L 336.31445 323.87891 L 333.81445 322.62891 L 333.45703 320.48633 L 335.59961 316.55859 L 331.31445 304.05859 L 323.45703 304.41602 L 322.38477 308.87891 L 319.52734 308.87891 L 332.56445 359.77148 L 331.13477 364.59375 L 331.49219 370.66602 L 323.09961 384.77148 L 321.49219 392.62891 L 312.38477 410.30859 L 314.24219 415.74805 L 309.86523 415.74805 L 309.86523 346.20312 L 220.84375 340.01562 L 221.72852 325.49414 L 191.17188 322.96875 L 191.17188 321.45508 L 160.86719 318.67578 L 160.99219 316.27734 C 163.89638 312.8681 162.38232 309.08077 160.48828 306.68164 C 158.59425 304.28255 155.56445 303.52344 155.56445 303.52344 L 156.19531 300.74609 C 156.19531 300.74609 155.68974 298.34695 154.30078 295.69531 C 152.91182 293.04363 148.61942 291.27664 144.70508 288.625 C 140.79073 285.97336 132.96094 282.05859 132.96094 282.05859 C 132.96094 282.05859 112.88472 268.9259 100.25781 269.30469 z M 41.542969 348.72852 L 55.810547 349.61328 L 53.818359 415.74805 L 41.792969 415.74805 L 41.542969 348.72852 z M 62.25 349.99219 L 76.140625 350.62305 L 74.414062 415.74805 L 62.625 415.74805 L 62.25 349.99219 z M 82.328125 351.12695 L 95.964844 352.39062 L 93.597656 415.74805 L 82.697266 415.74805 L 82.328125 351.12695 z M 102.15234 352.39062 L 115.66211 353.65234 L 113.17383 415.74805 L 102.90039 415.74805 L 102.15234 352.39062 z M 121.84961 353.65234 L 134.98242 354.28516 L 133.49219 415.74805 L 121.72461 415.74805 L 121.84961 353.65234 z M 140.66406 354.91602 L 152.78516 355.54688 L 151.78906 415.74805 L 141.03516 415.74805 L 140.66406 354.91602 z M 158.3418 356.17773 L 169.83203 356.43164 L 168.33984 415.74805 L 158.58984 415.74805 L 158.3418 356.17773 z M 175.76562 357.0625 L 185.86719 357.69336 L 184.11914 415.74805 L 175.27148 415.74805 L 175.76562 357.0625 z M 192.18164 358.57812 L 200.38867 358.95703 L 200.38867 415.74805 L 192.05664 415.74805 L 192.18164 358.57812 z M 223.11719 361.98633 L 230.31445 361.98633 L 230.31445 415.74805 L 223.11719 415.74805 L 223.11719 361.98633 z M 238.26953 362.87109 L 246.35156 362.87109 L 246.35156 415.74805 L 238.26953 415.74805 L 238.26953 362.87109 z M 253.54883 363.75391 L 260.49219 363.75391 L 260.49219 415.74805 L 253.54883 415.74805 L 253.54883 363.75391 z M 268.06836 364.38672 L 274.50977 364.38672 L 274.50977 415.74805 L 268.06836 415.74805 L 268.06836 364.38672 z M 282.21094 364.89062 L 288.52539 364.89062 L 288.52539 415.74805 L 282.21094 415.74805 L 282.21094 364.89062 z M 295.84766 365.39648 L 302.03516 365.39648 L 302.03516 415.74805 L 295.84766 415.74805 L 295.84766 365.39648 z "
       style="opacity:1;fill:#111111;fill-opacity:1;fill-rule:evenodd;stroke:none;stroke-width:0.99999994;stroke-opacity:1" />
  </g>
</svg>
